<?xml version="1.0"?>
<svg xmlns="http://www.w3.org/2000/svg" id="Layer_2" height="512px" viewBox="0 0 128 128" width="512px" data-name="Layer 2" class=""><g><path d="m126.25 28.75h-124.5a1.746 1.746 0 0 0 -1.75 1.75v67a1.746 1.746 0 0 0 1.75 1.75h124.5a1.746 1.746 0 0 0 1.75-1.75v-67a1.746 1.746 0 0 0 -1.75-1.75zm-1.75 67h-121v-63.5h121z" data-original="#000000" class="active-path" data-old_color="#000000" fill="#FFFFFF"/><path d="m66.914 70.407h-9.906a1.75 1.75 0 0 0 0 3.5h5.242v4.822a1.75 1.75 0 0 0 3.5 0v-4.822h1.164a5.829 5.829 0 1 0 0-11.657h-5.828a2.329 2.329 0 1 1 0-4.657h9.906a1.75 1.75 0 0 0 0-3.5h-5.242v-4.822a1.75 1.75 0 0 0 -3.5 0v4.822h-1.164a5.829 5.829 0 1 0 0 11.657h5.827a2.329 2.329 0 1 1 0 4.657z" data-original="#000000" class="active-path" data-old_color="#000000" fill="#FFFFFF"/><path d="m118 51.08a11.762 11.762 0 0 1 -11.75-11.75 1.752 1.752 0 0 0 -1.75-1.75h-81a1.752 1.752 0 0 0 -1.75 1.75 11.762 11.762 0 0 1 -11.75 11.75 1.752 1.752 0 0 0 -1.75 1.75v22.34a1.752 1.752 0 0 0 1.75 1.75 11.762 11.762 0 0 1 11.75 11.75 1.752 1.752 0 0 0 1.75 1.75h81a1.752 1.752 0 0 0 1.75-1.75 11.762 11.762 0 0 1 11.75-11.75 1.752 1.752 0 0 0 1.75-1.75v-22.34a1.752 1.752 0 0 0 -1.75-1.75zm-92.85 35.84a15.268 15.268 0 0 0 -13.4-13.4v-19.04a15.268 15.268 0 0 0 13.4-13.4h25.74a26.389 26.389 0 0 0 0 45.84zm15.93-22.92a22.92 22.92 0 1 1 22.92 22.92 22.944 22.944 0 0 1 -22.92-22.92zm75.17 9.52a15.268 15.268 0 0 0 -13.4 13.4h-25.74a26.389 26.389 0 0 0 0-45.84h25.74a15.268 15.268 0 0 0 13.4 13.4z" data-original="#000000" class="active-path" data-old_color="#000000" fill="#FFFFFF"/></g> </svg>
