<?xml version="1.0"?>
<svg xmlns="http://www.w3.org/2000/svg" xmlns:xlink="http://www.w3.org/1999/xlink" version="1.1" id="Capa_1" x="0px" y="0px" viewBox="0 0 207.498 207.498" style="enable-background:new 0 0 207.498 207.498;" xml:space="preserve" width="512px" height="512px" class=""><g><path d="M137.332,184.286L137.332,184.286L137.332,184.286c-0.006,0-0.009,0-0.012,0c-0.002,0-0.005,0-0.009,0  c-0.002,0-0.004,0-0.008,0c-0.002,0-0.004,0-0.008,0c-0.001,0-0.002,0-0.002,0c-0.003,0-0.006,0-0.008,0s-0.004,0-0.006,0h-0.001  c-0.146-0.002-0.291-0.016-0.434-0.039l-59.382-9.579c-0.028-0.004-0.056-0.009-0.084-0.014l-7.213-1.164L3.478,184.248  c-0.867,0.137-1.753-0.108-2.423-0.678C0.386,183,0,182.165,0,181.286v-44.553c0-0.031,0-0.062,0-0.093V37.046  c0-1.473,1.069-2.727,2.522-2.962l67.163-10.833c0.141-0.023,0.284-0.036,0.427-0.038c0.002-0.001,0.004,0,0.007,0  c0.005-0.001,0.005,0,0.007,0c0.005-0.001,0.005,0,0.008,0c0.002-0.001,0.004,0,0.007,0c0.003-0.001,0.005,0,0.008,0  c0.002,0,0.005,0,0.008,0c0.003,0,0.004,0.001,0.008,0l0,0c0.003,0.002,0.005,0,0.008,0c0.002-0.001,0.004,0,0.008,0  c0.002,0,0.003,0,0.008,0c0.002,0,0.004,0,0.007,0s0.005,0,0.008,0c0.003,0,0.005,0,0.008,0c0.001,0,0.003-0.001,0.007,0  c0.002,0,0.004,0,0.006,0h0c0.015,0,0.029,0.001,0.044,0.001h0c0.002,0,0.005,0,0.007,0l0,0c0.125,0.005,0.25,0.018,0.374,0.038  l27.95,4.508c0.03,0.004,0.06,0.009,0.089,0.014l38.642,6.233l66.688-10.757c0.867-0.139,1.753,0.108,2.423,0.678  c0.669,0.57,1.055,1.405,1.055,2.284v75.773c0.001,0.042,0.001,0.084,0,0.126v68.34c0,1.473-1.068,2.727-2.522,2.962l-67.158,10.833  c-0.145,0.023-0.292,0.037-0.439,0.039c-0.001,0-0.004,0-0.007,0c-0.003,0-0.006,0-0.008,0c-0.001,0-0.006,0-0.007,0  c-0.003,0-0.007,0-0.008,0c-0.002,0-0.006,0-0.008,0S137.336,184.286,137.332,184.286L137.332,184.286z M81.913,169.308  l52.418,8.456v-31.769l-31.418-23.338c-1.479,0.899-3.261,1.394-5.096,1.322L81.913,169.308z M6,140.13v37.633l61.166-9.866V83.369  l-15.558-8.066c-1.238,0.894-2.707,1.486-4.298,1.669l-10.898,56.093c2.865,1.552,4.815,4.586,4.815,8.067  c0,5.054-4.112,9.167-9.167,9.167c-4.589,0-8.401-3.39-9.064-7.796L6,140.13z M140.332,147.739v30.024l61.165-9.866v-62.08  l-40.402,9.329l-3.65,21.639c2.525,1.634,4.199,4.476,4.199,7.701c0,5.054-4.112,9.167-9.167,9.167c-3.796,0-7.06-2.319-8.45-5.614  L140.332,147.739z M73.166,167.897l2.729,0.44l16.329-46.541c-1.974-1.683-3.227-4.186-3.227-6.977c0-1.621,0.423-3.146,1.165-4.468  L73.166,89.862V167.897z M149.349,144.985c0.24,1.51,1.552,2.667,3.128,2.667c1.746,0,3.167-1.42,3.167-3.167  s-1.421-3.167-3.167-3.167s-3.167,1.42-3.167,3.167c0,0.084,0.003,0.168,0.01,0.251  C149.333,144.819,149.343,144.902,149.349,144.985z M32.06,137.966c-1.746,0-3.167,1.421-3.167,3.167s1.42,3.167,3.167,3.167  s3.167-1.42,3.167-3.167c0-1.545-1.112-2.834-2.577-3.112c-0.079-0.009-0.159-0.021-0.239-0.036  C32.296,137.973,32.179,137.966,32.06,137.966z M140.332,141.72l3.323,0.269c1.013-3.573,4.145-6.265,7.945-6.627l3.162-18.753  l-14.431,3.332V141.72z M106.75,118.033l27.582,20.488v-18.205l-27.581-2.286C106.751,118.03,106.75,118.032,106.75,118.033z   M6,134.072l18.095,2.526c1.331-2.329,3.655-4.022,6.391-4.497l10.963-56.43c-2.616-1.616-4.363-4.51-4.363-7.805  c0-5.054,4.112-9.167,9.167-9.167c5.054,0,9.167,4.112,9.167,9.167c0,0.858-0.119,1.69-0.34,2.478l12.086,6.266V29.735L6,39.6  V134.072z M97.023,117.773c0.354,0.138,0.739,0.213,1.142,0.213c0.914,0,1.739-0.389,2.317-1.011  c0.048-0.061,0.099-0.119,0.151-0.175c0.431-0.537,0.692-1.217,0.698-1.956c0-0.016,0-0.031,0-0.046  c-0.012-1.736-1.428-3.146-3.166-3.146c-0.776,0-1.489,0.281-2.041,0.747c-0.061,0.061-0.125,0.12-0.192,0.177  c-0.577,0.574-0.934,1.368-0.934,2.244c0,1.309,0.798,2.435,1.934,2.917C96.962,117.748,96.993,117.76,97.023,117.773z   M106.894,112.021l27.438,2.274V39.6l-33.167-5.35v71.905C103.877,107.098,106.015,109.281,106.894,112.021z M140.332,39.6v74.182  l15.512-3.582l6.496-38.518c-3.012-1.504-5.086-4.618-5.086-8.208c0-5.054,4.112-9.167,9.166-9.167c5.055,0,9.167,4.112,9.167,9.167  c0,4.412-3.133,8.105-7.291,8.974l-6.121,36.29l39.322-9.08V29.735L140.332,39.6z M73.166,80.463l21.477,25.892  c0.171-0.071,0.345-0.138,0.521-0.199V33.283l-21.999-3.548V80.463z M45.612,70.968c0.207,0.043,0.422,0.065,0.642,0.065  c0.969,0,1.837-0.438,2.419-1.125c0.047-0.065,0.097-0.129,0.148-0.19c0.377-0.521,0.599-1.161,0.599-1.852  c0-1.746-1.42-3.167-3.167-3.167s-3.167,1.42-3.167,3.167c0,1.473,1.01,2.713,2.375,3.066  C45.512,70.944,45.562,70.955,45.612,70.968z M166.42,60.309c-1.746,0-3.166,1.42-3.166,3.167s1.42,3.167,3.166,3.167  s3.167-1.42,3.167-3.167S168.166,60.309,166.42,60.309z" data-original="#000000" class="active-path" data-old_color="#000000" fill="#FFFFFF"/></g> </svg>
