<?xml version="1.0" encoding="UTF-8"?>
<svg width="700pt" height="700pt" version="1.1" viewBox="0 0 700 700"
  xmlns="http://www.w3.org/2000/svg">
  <path fill="white"
    d="m653.31 182.34c7.7188 25.371 8.1328 46.238 8.1328 53.422-0.074218 54.367-25.371 93.371-35.254 108.18-22.887 34.305-49.453 52.52-69.832 66.492-40.125 27.539-76.426 38.594-99.777 45.508-56.996 16.871-102.19 16.047-115.19 15.605-0.60938-0.023438-1.0977-0.046875-1.4141-0.046875-0.39062 0.21875-0.875 0.60938-1.0234 0.65625-24.199 15.242-57.168 32.531-98.414 45.359-47.77 14.852-90.891 18.82-124.32 18.82-9.0586 0-17.387-0.28906-24.887-0.75391-0.28906 0.074219-0.55859 0.097656-0.82812 0.097656-0.875 0-1.6523-0.33984-2.2383-0.89844-1.2656-1.2695-0.92578-2.9492-0.90234-3.0469 6.5039-7.7148 26.223-33.184 27.734-71.363 1.6562-42.316-20.16-71.312-26.027-78.641-9.8359-8.7656-68.758-63.109-67.762-145.96 0.68359-55.367 27.855-97.223 36.57-109.62 14.051-19.965 30.605-35.012 37.008-40.781 21.598-19.43 40.98-30.605 51.984-36.84 27.246-15.484 50.156-23.25 64.352-27.973 15.875-5.2852 29.629-8.7656 40.004-11.055 11.758-2.6055 45.406-9.4961 90.16-9.4961 30.969 0 55.195 3.3125 67.516 5.2578 13.344 2.1211 36.984 5.9922 66.543 16.219 46.941 16.238 78.398 37.934 88.09 44.871 11.297 8.1094 24.469 17.652 39.371 33.309 12.441 13.074 37.398 39.93 50.398 82.684zm-46.578 113.27c13.172-29.531 13.32-54.828 13.297-59.844-0.097656-23.742-6.4062-41.223-9.6445-49.988-13.195-35.668-35.789-57.168-48.598-69.098-22.422-20.867-43.875-31.703-60.941-40.152-5.8203-2.8945-24.98-12.148-52.59-20.254-24.277-7.1367-60.75-15.047-106.86-14.855-50.426-0.77734-90.211 9.1797-115.24 17.41-24.594 8.082-63.719 21.426-101.9 55.223-13 11.516-31.066 27.852-44.895 55.512-5.4805 10.957-16.777 34.234-16.656 66.203 0.050781 7.6211 0.75781 25.176 8.1094 45.797 8.8359 24.711 22.594 40.953 43.312 65.473 17.582 20.766 30.219 31.652 39.566 55.609 2.9453 7.5469 4.625 14.047 5.6016 18.309 0.39062 15.605-0.75391 31.191-3.4336 46.527-1.5352 8.793-3.5547 17.461-6.0391 25.98 26.66-2.3867 52.934-7.5469 78.426-15.461 31.02-9.6406 60.82-23.375 88.48-40.781 0.48438-0.29297 0.94922-0.60938 1.3867-0.90234l3.4336-2.1172 0.89844-0.55859h0.027343l5.7461-3.6055 11.879 0.046875h1.0977c0.31641 0.027344 0.65625 0.027344 0.97266 0.050781 33.332 0.097656 60.82-4.1641 80.52-8.4258 20.137-4.3555 52.078-11.516 88.82-31.723 14.512-7.9648 36.789-20.453 59.555-44.121 10.738-11.125 24.883-26.074 35.668-50.254zm-144.52-116.93c11.395 0 20.695 9.3242 20.695 20.719 0 11.371-9.3008 20.672-20.695 20.672h-221.84c-11.395 0-20.695-9.3008-20.695-20.672 0-11.395 9.3008-20.719 20.695-20.719zm-64.723 82.789c11.395 0 20.695 9.3242 20.695 20.695s-9.3008 20.695-20.695 20.695h-157.12c-11.371 0-20.695-9.3242-20.695-20.695s9.3242-20.695 20.695-20.695z"
    fill-rule="evenodd" />
</svg>
