<?xml version="1.0"?>
<svg xmlns="http://www.w3.org/2000/svg" id="Layer_1" height="512px" viewBox="0 0 128 128" width="512px" data-name="Layer 1" class=""><g><path d="m91.372 49.63c.048 0 .1.006.143.006a1.75 1.75 0 0 0 1.742-1.61l1.2-14.9a1.75 1.75 0 1 0 -3.488-.281l-1.2 14.9a1.749 1.749 0 0 0 1.603 1.885z" data-original="#000000" class="active-path" data-old_color="#000000" fill="#FFFFFF"/><path d="m103.808 14.5h-12.608l-2.39-8.475a1.752 1.752 0 0 0 -1.685-1.275h-46.25a1.752 1.752 0 0 0 -1.685 1.275l-2.39 8.475h-12.608a1.751 1.751 0 0 0 -1.75 1.75v9.75a1.751 1.751 0 0 0 1.75 1.75h2.9l2.211 27.458v.042l2.855 35.409 2.495 30.982a1.75 1.75 0 0 0 1.747 1.609h55.2a1.75 1.75 0 0 0 1.744-1.609l2.5-30.982 2.85-35.409c0-.014 0-.027 0-.042l2.206-27.458h2.9a1.751 1.751 0 0 0 1.75-1.75v-9.75a1.751 1.751 0 0 0 -1.742-1.75zm-61.608-6.25h43.6l1.762 6.25h-47.125zm49.926 84.91h-56.252l-2.923-36.3h62.1zm-2.142 26.59h-51.968l-1.86-23.09h55.688zm5.347-66.39h-62.662l-2.063-25.61h66.788zm6.727-29.11h-76.116v-6.25h76.116z" data-original="#000000" class="active-path" data-old_color="#000000" fill="#FFFFFF"/><path d="m64 88.256a13.25 13.25 0 1 0 -13.25-13.25 13.264 13.264 0 0 0 13.25 13.25zm0-23a9.75 9.75 0 1 1 -9.75 9.75 9.761 9.761 0 0 1 9.75-9.75z" data-original="#000000" class="active-path" data-old_color="#000000" fill="#FFFFFF"/></g> </svg>
